<svg id="Camada_1" data-name="Camada 1" xmlns="http://www.w3.org/2000/svg" viewBox="0 0 788.2 12.9"><title>decoracao</title><line x1="2.1" y1="6.45" x2="358.05" y2="6.45" style="fill:none;stroke:#4abbbe;stroke-miterlimit:10;opacity:0.5"/><circle cx="2.8" cy="6.45" r="2.8" style="fill:#4abbbe;opacity:0.5"/><circle cx="209.3" cy="6.45" r="2.8" style="fill:#4abbbe;opacity:0.5"/><circle cx="313.6" cy="6.45" r="2.8" style="fill:#4abbbe;opacity:0.5"/><circle cx="37.1" cy="6.45" r="5.6" style="fill:#4abbbe;opacity:0.5"/><circle cx="115.5" cy="6.45" r="5.6" style="fill:#4abbbe;opacity:0.5"/><circle cx="294.7" cy="6.45" r="5.6" style="fill:#4abbbe;opacity:0.5"/><circle cx="137.9" cy="6.45" r="2.8" style="fill:#4abbbe;opacity:0.5"/><circle cx="77.7" cy="6.45" r="3.85" style="fill:#fff;stroke:#4abbbe;stroke-miterlimit:10;opacity:0.5"/><circle cx="165.9" cy="6.45" r="5.95" style="fill:#fff;stroke:#4abbbe;stroke-miterlimit:10;opacity:0.5"/><circle cx="242.9" cy="6.45" r="5.95" style="fill:#fff;stroke:#4abbbe;stroke-miterlimit:10;opacity:0.5"/><line x1="349.6" y1="6.45" x2="787.8" y2="6.45" style="fill:none;stroke:#4abbbe;stroke-miterlimit:10;opacity:0.5"/><circle cx="356.3" cy="6.45" r="2.8" style="fill:#4abbbe;opacity:0.5"/><circle cx="562.8" cy="6.45" r="2.8" style="fill:#4abbbe;opacity:0.5"/><circle cx="785.4" cy="6.45" r="2.8" style="fill:#4abbbe;opacity:0.5"/><circle cx="667.1" cy="6.45" r="2.8" style="fill:#4abbbe;opacity:0.5"/><circle cx="390.6" cy="6.45" r="5.6" style="fill:#4abbbe;opacity:0.5"/><circle cx="469" cy="6.45" r="5.6" style="fill:#4abbbe;opacity:0.5"/><circle cx="648.2" cy="6.45" r="5.6" style="fill:#4abbbe;opacity:0.5"/><circle cx="491.4" cy="6.45" r="2.8" style="fill:#4abbbe;opacity:0.5"/><circle cx="431.2" cy="6.45" r="3.85" style="fill:#fff;stroke:#4abbbe;stroke-miterlimit:10;opacity:0.5"/><circle cx="519.4" cy="6.45" r="5.95" style="fill:#fff;stroke:#4abbbe;stroke-miterlimit:10;opacity:0.5"/><circle cx="596.4" cy="6.45" r="5.95" style="fill:#fff;stroke:#4abbbe;stroke-miterlimit:10;opacity:0.5"/><circle cx="716.1" cy="6.45" r="5.95" style="fill:#fff;stroke:#4abbbe;stroke-miterlimit:10;opacity:0.5"/></svg>